{
  "accessors": [
    {
      "bufferView": 0,
      "componentType": 5126,
      "type": "VEC3",
      "count": 24,
      "min": [-0.5, -0.5, -0.5],
      "max": [0.5, 0.5, 0.5]
    },
    {
      "bufferView": 1,
      "componentType": 5126,
      "type": "VEC3",
      "count": 24
    },
    {
      "bufferView": 2,
      "componentType": 5126,
      "type": "VEC2",
      "count": 24
    },
    {
      "bufferView": 3,
      "componentType": 5126,
      "type": "VEC3",
      "count": 24
    },
    {
      "bufferView": 4,
      "componentType": 5123,
      "type": "SCALAR",
      "count": 36
    }
  ],
  "asset": {
    "generator": "BRender 1.4.0 (DDI 2.0.0)",
    "version": "2.0"
  },
  "bufferViews": [
    {
      "name": "group 0 positions",
      "buffer": 0,
      "byteLength": 288,
      "target": 34962
    },
    {
      "name": "group 0 normals",
      "buffer": 1,
      "byteLength": 288,
      "target": 34962
    },
    {
      "name": "group 0 uvs",
      "buffer": 2,
      "byteLength": 192,
      "target": 34962
    },
    {
      "name": "group 0 colours",
      "buffer": 3,
      "byteLength": 288,
      "target": 34962
    },
    {
      "name": "group 0 indices",
      "buffer": 4,
      "byteLength": 72,
      "target": 34963
    }
  ],
  "buffers": [
    {
      "name": "group 0 positions",
      "uri": "data:application/octet-stream;base64,",
      "byteLength": 288
    },
    {
      "name": "group 0 normals",
      "uri": "data:application/octet-stream;base64,",
      "byteLength": 288
    },
    {
      "name": "group 0 uvs",
      "uri": "data:application/octet-stream;base64,",
      "byteLength": 192
    },
    {
      "name": "group 0 colours",
      "uri": "data:application/octet-stream;base64,",
      "byteLength": 288
    },
    {
      "name": "group 0 indices",
      "uri": "data:application/octet-stream;base64,",
      "byteLength": 72
    }
  ],
  "meshes": [
    {
      "name": "cube",
      "primitives": [
        {
          "indices": 4,
          "attributes": {
            "POSITION": 0,
            "NORMAL": 1,
            "TEXCOORD_0": 2,
            "COLOR_0": 3
          }
        }
      ]
    }
  ],
  "materials": [
    {
      "name": "scene-material",
      "pbrMetallicRoughness": {
        "metallicFactor": 0,
        "baseColorFactor": [0.577580512, 0.577580512, 0.577580512, 1]
      },
      "extensions": {
        "KHR_materials_ior": {
        }
      }
    }
  ],
  "nodes": [
    {
      "children": [ 1, 2, 3 ],
      "name": "world"
    },
    {
      "name": "ambient",
      "extensions": {
        "BR_lights": {
          "light": 0
        }
      }
    },
    {
      "name": "camera",
      "matrix": [1, 0, 0, 0, 0, 1, 0, 0, 0, 0, 1, 0, 0, 0, 6, 1],
      "camera": 0
    },
    {
      "mesh": 0,
      "name": "cube",
      "extensions": {
        "BR_materials": {
          "material": 0
        }
      }
    }
  ],
  "samplers": [
    {
      "magFilter": 9728,
      "minFilter": 9728
    }
  ],
  "scene": 0,
  "scenes": [
    {
      "nodes": [ 0 ]
    }
  ],
  "cameras": [
    {
      "type": "perspective",
      "perspective": {
        "aspectRatio": 1,
        "yfov": 0.785398185,
        "zfar": 100,
        "znear": 0.100000001
      }
    }
  ],
  "extensions": {
    "KHR_lights_punctual": {
      "lights": [
        {
          "type": "point",
          "intensity": 0,
          "range": 1
        }
      ]
    },
    "BR_lights": {
      "lights": [
        {
          "identifier": "ambient",
          "type": "ambient",
          "colour": [0.200000003, 0.0509803928, 0.400000006]
        }
      ]
    },
    "BR_materials": {
      "materials": [
        {
          "identifier": "scene-material",
          "colour": [0.784313738, 0.784313738, 0.784313738],
          "map_transform": [1, 0, 0, 1, 0, 0]
        }
      ]
    }
  },
  "extensionsUsed": [
    "KHR_lights_punctual",
    "KHR_materials_ior",
    "BR_lights",
    "BR_materials"
  ]
}
